<?xml version="1.0" encoding="utf-8"?>
<!-- Generator: Adobe Illustrator 23.0.1, SVG Export Plug-In . SVG Version: 6.00 Build 0)  -->
<svg version="1.1" id="图层_1" xmlns="http://www.w3.org/2000/svg" xmlns:xlink="http://www.w3.org/1999/xlink" x="0px" y="0px"
	 viewBox="0 0 707.4 200" style="enable-background:new 0 0 707.4 200;" xml:space="preserve">
<path d="M0,200h17.6v-37.6l-17.6-4V200z M619.9,66.2c0.6,0,1.1,0.1,1.7,0.2v-1.4c-2.6-0.2-4.7-0.4-6.9-0.6l-8.4-4.9h2.3v-1.2h-2.1
	l-1.6-2.6c1.3,0,2.4-1,2.4-2.4s-1-2.4-2.4-2.4c-0.5,0-0.9,0.2-1.4,0.5H602l-2.1-22.1c1.4,0,2.6-1.2,2.6-2.6c0-1.5-1.2-2.6-2.6-2.6
	c-0.2,0-0.4,0-0.5,0.1l-2-20.8h2.3V1.8h-2.4V0h-3.2L594,1.7h-2.4v1.5h2.3l-4.5,48.2h-3v1.2h2l-3.4,5.6h-2.1v1.2h2.3l-8.6,5
	c-1.8,0.2-3.6,0.4-5.8,0.6v1.4c0.6-0.1,1.1-0.1,1.7-0.2v3c-1.1,0.1-2.4,0.2-3.6,0.3l0.4,0.8l1.6,0.7l5,1.8l1.5,1
	c-0.4,0-0.8,0.1-1.1,0.1v1.3c0.8-0.1,1.5-0.2,2.4-0.3c-0.9,0.1-1.4,0.2-1.4,0.2l2.2,8.1h-0.8v1.3c0.5,0,1,0,1.5-0.1l0.8,1.2h0.1v0.8
	h1.6l5.2,26.4v69l-1.1-0.1h-69.9v-1.2H514V200H604v-85l6.5-28.7h1.4v-0.6h-0.6l0.8-1.2c0.6,0,1.1,0.1,1.8,0.1v-1.3h-0.8l2.2-8.1
	c0.3,0,0.6,0.1,0.8,0.1V74c-0.4,0-0.7-0.1-1-0.1l1.5-0.9l5.1-1.8l1.8-0.8l0.2-0.8c-1.3-0.1-2.5-0.2-3.7-0.3V66.2z M582.9,86.6h1.6
	l0.1,0.7h-1.5L582.9,86.6L582.9,86.6z M583.2,88.1h1.5l0.4,2.7h-1.3L583.2,88.1z M584,91.6h1.3l0.5,3.1h-1.1L584,91.6z M584.7,95.6
	h1l0.5,3.6h-0.8L584.7,95.6z M585.6,99.9h0.8l0.7,4.6h-0.6L585.6,99.9z M587.5,109.6l-0.8-4.1h0.8V109.6z M607,86.6h0.4l-0.1,0.7
	h-0.4L607,86.6z M606.8,88.1h0.3l-0.5,2.7h-0.2L606.8,88.1z M604,112.3v-2.1l0.8-4.8h0.8L604,112.3z M605.7,104.5H605l0.8-4.6h1
	L605.7,104.5z M607,99.2h-1.1l0.6-3.6h1.3L607,99.2L607,99.2z M608,94.7h-1.3l0.6-3.1h1.5L608,94.7L608,94.7z M608.9,90.9h-1.6
	l0.5-2.7h1.7L608.9,90.9z M609.7,87.3h-1.8l0.1-0.7h1.8L609.7,87.3z M190.8,187.2l1.7-3.1h-1.7l1.9-4.8l-1.7-1.8l-2.3,1.8l-0.7-3.7
	c0,0,5.7-13.7,6.2-20.1l-2.2-1.9l-2.5,1.1l0.8-7.4l-1.7-1.8l-2.7,1.8l0.3-3.9l-2-0.9c0,0,4.3-8.7,6.5-26.8l-2.5-2l-0.7,0.8l-2.4-0.8
	l0.6-2.7l-1.8-1.5c0,0-8.6,4.6-10.4,6.8c0.1-1.1,0.2-1.7,0.2-1.7s-4.9,2.2-11.9,7.5c-1.5,0.6-3,1-4.5,1.6l-0.8,0.3
	c-0.4,0.1-0.8,0.3-1.2,0.4l-0.8,0.3c-0.1,0-0.1,0-0.2,0.1v-0.4h0.9v-1.9l-2.4-2.3l-6.9,0.3v-0.1c-0.1-0.7-0.3-1.3-0.5-2.1
	c-0.1-0.3-0.1-0.6-0.2-0.9c-0.1-0.3-0.2-0.7-0.2-0.9c0-0.2-0.1-0.3-0.1-0.5c0-0.1,0-0.2-0.1-0.3c-0.1-0.2-0.1-0.5-0.2-0.7
	c0-0.2-0.1-0.3-0.1-0.5c-0.1-0.4-0.2-0.8-0.4-1.2c-0.1-0.2-0.1-0.4-0.2-0.6c0-0.1,0.1-0.2,0.1-0.2l-0.2-0.2
	c-0.1-0.2-0.1-0.3-0.2-0.5c-0.1-0.3-0.2-0.6-0.3-0.8c0-0.1-0.1-0.1-0.1-0.2c-0.1-0.2-0.2-0.5-0.3-0.7c-0.5-1.3-1-2.5-1.6-3.8
	c-0.1-0.2-0.2-0.5-0.3-0.7c-0.8-1.5-1.5-2.8-2.3-4.1c-0.8-1.4-1.7-2.7-2.5-3.8c-0.8-1.1-1.6-2.1-2.1-2.6c-0.1-0.2-0.2-0.3-0.3-0.4
	c0-0.1-0.1-0.1-0.1-0.1l-0.1-0.1H134c0.8-0.3,1.3-0.8,1.3-1.1v-0.2c0-0.1-0.1-0.1-0.1-0.2c-0.3-0.4-0.9-0.8-2-1
	c0.1,0,0.2-0.1,0.3-0.1c0.2-0.1,0.4-0.2,0.5-0.3c0.3-0.2,0.4-0.4,0.4-0.6c0-0.1,0-0.1-0.1-0.2c-0.3-0.5-1.3-0.9-2.7-1.1h0.1
	c0.2-0.1,0.5-0.2,0.7-0.3c0.8-0.4,1.2-0.8,1.2-1.4v-0.3V88c-0.2-0.5-0.8-0.9-1.5-1.2c0.9-0.8,1.6-2,1.6-3.4c0-1.6-0.8-2.9-2.1-3.8
	c0.2-0.6,0.6-2.2,1.4-2.5h0.2c0.4-0.3-1.7-0.7-3.5-0.7v-0.1c0.7-0.1,1.8-0.5,2-1.4c0.1-0.8-0.8-1.3-1.9-2c2-1,4.1-2.1,2.7-4.1
	c-0.3-0.4-0.8-0.7-1.6-0.9c1.2-0.9,2.3-1.8,2.4-2.8c0.1-1.3-1.1-2.4-2.4-3.1c1.4-1.1,2.5-2.2,2.5-2.7c-0.1-0.8-1.5-1.7-3.1-2.6
	c1.1-0.9,2-1.8,2.2-2.8c0.7-3.2-1.7-5.1-2.6-5.7v-3.9h-0.8v3.9c-1,0.6-4.1,2.6-2.6,5.6c0.2,0.5,0.8,0.9,1.3,1.4
	c-1.2,0.5-2.4,0.8-2.5,2c-0.2,1.3,0.4,2.2,1.2,2.8c-0.9,1.1-1.5,2.4-1.2,3.8c0.2,1,0.7,1.8,1.3,2.4c-0.6,0.8-0.9,1.7-0.9,2.5
	c0.1,1.2,0.8,2.2,1.8,2.9c-0.4,1.1-0.2,2.2,0.2,2.9c-0.3,0.3-0.4,0.7-0.3,1c0.1,0.8,1.1,0.9,1.7,0.9c-1.4,0-2.8,0.1-3.5,0.3h-0.2
	h-0.1v0.1c0.8,0.6,1.4,1.3,1.7,2.6c-0.5,0.3-0.8,0.7-1.2,1v0.1c-0.1,0.1-0.2,0.3-0.3,0.4c-0.1,0.2-0.2,0.3-0.2,0.5
	c-0.1,0.2-0.1,0.3-0.2,0.5v0.2c0,0.1-0.1,0.3-0.1,0.4v0.8c0,1.4,0.7,2.6,1.7,3.5c-0.7,0.3-1.1,0.8-1.3,1.1v0.4
	c0,0.7,0.8,1.3,1.9,1.7h0.1c-1.2,0.2-2.3,0.6-2.6,0.9c-0.1,0.1-0.1,0.1-0.1,0.2s-0.1,0.1-0.1,0.2c0,0.4,0.5,0.8,1.1,0.9
	c-1.1,0.3-1.9,0.8-2.1,1.2v0.4c0.2,0.5,0.8,0.8,1.9,1.1l-1.7,1.1c-0.8,0.6-1.4,1.2-2.1,2c-0.1,0.2-0.3,0.3-0.4,0.5s-0.3,0.3-0.4,0.5
	c-0.2,0.3-0.4,0.6-0.7,0.8c-0.3,0.4-0.5,0.8-0.8,1.1c-0.8,1.2-1.6,2.6-2.3,4.1c-0.7,1.3-1.2,2.7-1.7,4.1c-0.1,0.4-0.3,0.8-0.4,1.1
	c-0.8,2-1.8,4.9-2.4,8.4c-0.2,0.8-0.3,1.5-0.5,2.3c-0.1,0.4-0.2,0.8-0.2,1.1l-9.2,0.4v1.8h0.6v6.6c-0.4,0-0.8-0.1-1.2-0.1
	c-0.3,0-0.6-0.1-0.8-0.1c-0.4,0-0.8-0.1-1.2-0.1c-0.3,0-0.6-0.1-0.8-0.1c-0.4-0.1-0.8-0.1-1.2-0.2c-0.3,0-0.6-0.1-0.8-0.1
	c-0.4-0.1-0.8-0.1-1.2-0.2c-0.3,0-0.6-0.1-0.8-0.1c-0.4-0.1-0.8-0.1-1.2-0.2c-0.3,0-0.6-0.1-0.8-0.1c-0.4-0.1-0.8-0.2-1.2-0.2
	c-0.3-0.1-0.6-0.1-0.8-0.2c-0.4-0.1-0.8-0.2-1.2-0.3c-0.3-0.1-0.6-0.1-0.8-0.2c-2.2-0.5-3.3-0.8-3.3-0.8c-9.4-7.1-17.3-10-17.3-10
	s-0.3,14.3,9.9,38.3l-9.9-5.8l4.7,11.5l1.5,0.9c-5.3-2.9-8.6-4-8.6-4s0.5,11.5,8.7,27c-4.4-2-7.6-3.2-7.6-3.2l2.7,6.4l1.4,5.7
	l-7.7-4.3c0,0,1.1,4,3,9.6h125.4c1.4-5,3.8-12.6,3.8-12.6h-4.9L190.8,187.2L190.8,187.2z M697.1,198.6c0.2-0.2,0.3-0.5,0.3-0.7
	c0-0.8-0.8-1.4-1.8-1.4s-1.8,0.7-1.8,1.4c0,0.3,0.1,0.5,0.3,0.7h-3.3c-0.4,0-0.6,1-0.4,1.4l0.1,0.1h16.4l0-1.6L697.1,198.6
	L697.1,198.6z M378.9,154.4c0-1.8-1.1-3.3-2.7-3.7l-3.5-0.8v-15.4l-5.4-1.7v-1.5c0,0-2.8-0.2-5.9-0.2s-10.6-1.8-10.6-1.8v1.8
	l-4.3-0.6v3h-2.9l-2.8,1v3.3l-2.5-1.3v-5.3l-7.7,2.4v15.8h-4.2v-1.3h-1.5V200h53.5v-37.3c0.3,0.1,0.9,0.2,0.8-1.5
	C378.9,160,378.9,154.4,378.9,154.4z"/>
</svg>
