<?xml version="1.0" standalone="no"?><!DOCTYPE svg PUBLIC "-//W3C//DTD SVG 1.1//EN" "http://www.w3.org/Graphics/SVG/1.1/DTD/svg11.dtd"><svg t="1603785319234" class="icon" viewBox="0 0 2968 1024" version="1.1" xmlns="http://www.w3.org/2000/svg" p-id="10314" xmlns:xlink="http://www.w3.org/1999/xlink" width="579.6875" height="200"><defs><style type="text/css"></style></defs><path d="M2965.646332 0.395367h-68.793822l8.302702 15.023938c0.395367 0.790734 1.1861 1.1861 1.581468 1.1861h0.395366l5.139769 30.443244h-13.837838v6.721235h-4.349035c-2.767568 0-5.535135 2.372201-5.535135 5.139769V166.054054l-211.521236-0.395367v56.537452H2668.330502v11.465637l8.698069 2.372201V268.849421H2668.330502v11.465637l8.698069 3.162934v32.024711H2668.330502v11.465637l8.698069 3.953668v31.233977H2668.330502v11.465637l8.698069 4.349034v30.83861H2668.330502v11.465637l8.698069 5.139769v25.303475h-94.097297l0.395367 0.395367v23.32664h-15.419305v52.583784l-13.047104-5.535135v-45.467181l-20.559074-9.093437V0.395367h-377.970656V187.403861c-4.744402-0.790734-11.861004-1.581467-20.163707-1.581467l-55.351351-1.581467H1628.911197v-1.581468h-15.814672V600.166795l-26.489575 2.767568V0.395367h-224.56834v605.70193h-24.512741v-33.606177 0.790733V355.830116c0-1.581467-1.1861-2.767568-2.767568-2.767568v-1.976834h-11.465637l7.907336-8.698069h4.744402c0.395367 0 0.395367 0 0.790733-0.395367l3.162934-4.349035c0.395367-0.395367 0-1.1861-0.790733-1.1861h-0.790734c0.790734-0.790734 1.1861-1.581467 1.186101-2.767568 0-1.976834-1.1861-3.558301-2.767568-3.558301-1.581467 0-2.767568 1.581467-2.767567 3.558301 0 1.1861 0.395367 1.976834 1.1861 2.767568H1280.59305c0.790734-0.790734 1.1861-1.581467 1.186101-2.767568 0-1.976834-1.1861-3.558301-2.767568-3.558301-1.581467 0-2.767568 1.581467-2.767568 3.558301 0 1.1861 0.395367 1.976834 1.186101 2.767568h-5.930502c-0.790734 0-1.1861 0.790734-0.790734 1.1861l3.162935 4.349035c0 0.395367 0.395367 0.395367 0.790733 0.395367l1.976834 8.698069h-5.139768v1.976834h-1.1861c-1.581467 0-2.767568 1.1861-2.767568 2.767568V628.237838l-58.118919 19.76834v122.168339h-37.955212l-10.279537 7.907336V215.87027l-104.772201-5.930502v-10.279536l-57.723552-5.535135-39.932046 1.976834v8.302702h-3.162935l-65.630888 7.116603V430.159073h-175.14749l26.489575-144.704247c11.861004-30.047876 24.512741-58.118919 34.396912-74.328957 20.95444-34.792278 36.373745-69.189189 36.373745-69.189189l-13.837838-7.116603-13.837838 7.116603 13.047104-38.745946-15.814672-10.674904h-15.814671s33.210811-64.840154 38.350579-83.817761c0.790734-2.372201 1.581467-5.535135 2.372201-8.698069h-525.837838c10.279537 30.047876 26.884942 71.166023 47.444015 104.376834l1.581467 9.093436L288.222394 94.097297s7.907336 20.559073 15.419305 37.955213l3.953668 20.95444-29.257143-11.465637s1.1861 2.767568 3.162934 7.116602l23.326641 115.051738h-35.583011V80.259459l-126.517375-8.302702H73.933591V0.395367H0v583.166023C358.99305 853.201544 890.366023 1024 1482.625483 1024s1123.632432-170.798456 1482.625482-440.833977V47.048649h-12.651737l12.651737-18.58224V0.395367h0.395367zM1307.873359 342.387645l-1.976834 2.372201-1.1861-2.372201h3.162934z m-28.071042 8.698069l-1.976834-8.698069h3.162934l5.139768 8.698069h-6.325868z m4.349034-8.698069h13.047105l-7.907336 8.698069-5.139769-8.698069z m8.302703 8.698069l7.907336-8.698069h1.1861l2.372201 4.349035-3.953668 4.349034H1292.454054z m10.674904 0l1.976834-2.3722 1.1861 2.3722h-3.162934z m6.721235 0l-2.372201-4.349034 3.953668-4.349035h3.162935l5.139768 8.698069h-9.88417z m7.511969-8.698069h11.07027l-6.721235 7.511969-4.349035-7.511969z m1603.212355-295.338996l-5.139768-30.443244h8.302703l13.442471 30.443244h-16.605406z m24.512742 0l-13.442471-30.443244h34.001544l-20.559073 30.443244z" p-id="10315"></path></svg>